         <svg
            class="logo-svg"
            xmlns:x="&amp;ns_extend;"
            xmlns:i="&amp;ns_ai;"
            xmlns:graph="&amp;ns_graphs;"
            xmlns="http://www.w3.org/2000/svg"
            xmlns:xlink="http://www.w3.org/1999/xlink"
            version="1.1"
            id="Layer_1"
            x="0px"
            y="0px"
            viewBox="0 0 183.9 315"
            style="enable-background: new 0 0 183.9 315"
            xml:space="preserve"
          >
            <metadata>
              <sfw>
                <slices />
                <sliceSourceBounds
                  bottomLeftOrigin="true"
                  height="315"
                  width="183.9"
                  x="0"
                  y="0"
                />
              </sfw>
            </metadata>
            <g
              id="color_index_0"
              fill="#c6c6c6"
              style="fill: rgb(198, 198, 198)"
            >
              <polygon
                points="183.9,132.6 183.9,57.2 94,0 0,59.9 0,135.3 34.9,157.5 0,179.7 0,255.1 94,315 94,315 94,315 &#9;&#9;183.9,257.8 183.9,182.4 94,239.6 59.2,217.4 94,195.2 94,119.8 59.2,97.6 94.1,75.4 &#9;"
              />
            </g>
            <g>
              <polygon
                style="opacity: 0.48; enable-background: new;"
                points="153.2,37.7 59.2,97.6 0,59.9 94,0 &#9;"
              />
              <polygon
                style="opacity: 0.6; enable-background: new;"
                points="94.1,75.4 183.9,132.6 183.9,57.2 153.2,37.7 &#9;"
              />
              <polygon
                style="opacity: 0.36; enable-background: new;"
                points="94,119.8 0,59.9 0,135.3 34.9,157.5 &#9;"
              />
              <polygon
                style="opacity: 0.24; enable-background: new;"
                points="59.2,217.4 94,195.2 94,119.8 0,179.7 &#9;"
              />
              <polygon
                style="opacity: 0.12; enable-background: new;"
                points="94,239.6 0,179.7 0,255.1 34.9,277.3 &#9;"
              />
            </g>
            <g>
              <polygon
                style="opacity: 0.25; enable-background: new;"
                points="94,239.6 81.5,231.6 22.3,269.3 34.9,277.3 &#9;"
              />
              <polygon
                style="opacity: 0.25; enable-background: new;"
                points="71.7,89.6 59.2,97.6 0,59.9 12.6,51.9 &#9;"
              />
              <polygon
                style="opacity: 0.25; enable-background: new;"
                points="71.7,209.4 59.2,217.4 0,179.7 12.6,171.7 &#9;"
              />
              <polygon
                style="opacity: 0.25; enable-background: new;"
                points="94,119.8 81.5,111.8 22.3,149.5 34.9,157.5 &#9;"
              />
              <polygon
                style="opacity: 0.25; enable-background: new;"
                points="94.1,75.4 106.6,83.4 165.8,45.7 153.2,37.7 &#9;"
              />
            </g>
          </svg>